<svg xmlns="http://www.w3.org/2000/svg" viewBox="0 0 96 72" role="img" aria-labelledby="title">
  <title id="title">Windows style folder</title>
  <defs>
    <linearGradient id="tab" x1="12" y1="6" x2="42" y2="28" gradientUnits="userSpaceOnUse">
      <stop stop-color="#FFE58A"/>
      <stop offset="1" stop-color="#D58A1D"/>
    </linearGradient>
    <linearGradient id="body" x1="10" y1="20" x2="82" y2="70" gradientUnits="userSpaceOnUse">
      <stop stop-color="#FFE99A"/>
      <stop offset="0.42" stop-color="#F6C248"/>
      <stop offset="1" stop-color="#B96E14"/>
    </linearGradient>
    <linearGradient id="shine" x1="24" y1="20" x2="62" y2="58" gradientUnits="userSpaceOnUse">
      <stop stop-color="#FFFFFF" stop-opacity="0.62"/>
      <stop offset="1" stop-color="#FFFFFF" stop-opacity="0"/>
    </linearGradient>
    <filter id="shadow" x="0" y="0" width="96" height="72" filterUnits="userSpaceOnUse">
      <feDropShadow dx="0" dy="5" stdDeviation="4" flood-color="#000000" flood-opacity="0.35"/>
    </filter>
  </defs>
  <g filter="url(#shadow)">
    <path d="M10 17.5C10 13.9 12.9 11 16.5 11h20.3c2.2 0 4.2 1.1 5.4 2.9l4 6.1H79c3.9 0 7 3.1 7 7v31.5c0 4.1-3.4 7.5-7.5 7.5h-61C13.4 66 10 62.6 10 58.5v-41Z" fill="url(#tab)"/>
    <path d="M8 27.5C8 23.4 11.4 20 15.5 20h65c4.1 0 7.5 3.4 7.5 7.5v31C88 62.6 84.6 66 80.5 66h-65C11.4 66 8 62.6 8 58.5v-31Z" fill="url(#body)"/>
    <path d="M12 28c0-2.2 1.8-4 4-4h64c2.2 0 4 1.8 4 4v4H12v-4Z" fill="#FFF4B6" opacity="0.44"/>
    <path d="M16 31h64v20c-19.2 2.1-40.8-8.6-64 1V31Z" fill="url(#shine)" opacity="0.72"/>
    <path d="M15.5 20h65c4.1 0 7.5 3.4 7.5 7.5v31c0 4.1-3.4 7.5-7.5 7.5h-65C11.4 66 8 62.6 8 58.5v-31C8 23.4 11.4 20 15.5 20Z" fill="none" stroke="#FFE9A8" stroke-opacity="0.42"/>
  </g>
</svg>
