<svg xmlns="http://www.w3.org/2000/svg" viewBox="0 0 96 72" role="img" aria-labelledby="title">
  <title id="title">MacOS style folder</title>
  <defs>
    <linearGradient id="tab" x1="14" y1="8" x2="42" y2="30" gradientUnits="userSpaceOnUse">
      <stop stop-color="#8AD8FF"/>
      <stop offset="1" stop-color="#2F96EA"/>
    </linearGradient>
    <linearGradient id="body" x1="8" y1="18" x2="86" y2="66" gradientUnits="userSpaceOnUse">
      <stop stop-color="#8AD8FF"/>
      <stop offset="0.48" stop-color="#3DA4F5"/>
      <stop offset="1" stop-color="#0E66C6"/>
    </linearGradient>
    <linearGradient id="shine" x1="18" y1="23" x2="72" y2="58" gradientUnits="userSpaceOnUse">
      <stop stop-color="#FFFFFF" stop-opacity="0.74"/>
      <stop offset="0.55" stop-color="#FFFFFF" stop-opacity="0.18"/>
      <stop offset="1" stop-color="#FFFFFF" stop-opacity="0"/>
    </linearGradient>
    <filter id="shadow" x="0" y="0" width="96" height="72" filterUnits="userSpaceOnUse">
      <feDropShadow dx="0" dy="6" stdDeviation="5" flood-color="#000000" flood-opacity="0.28"/>
    </filter>
  </defs>
  <g filter="url(#shadow)">
    <path d="M10 18.5C10 14.9 12.9 12 16.5 12h21.2c2 0 3.9.9 5.1 2.5l4.1 5.5H80c3.9 0 7 3.1 7 7v31.5c0 4.1-3.4 7.5-7.5 7.5h-63C12.9 66 10 63.1 10 59.5v-41Z" fill="url(#tab)"/>
    <path d="M7 27.5C7 23.4 10.4 20 14.5 20h67c4.1 0 7.5 3.4 7.5 7.5v31C89 62.6 85.6 66 81.5 66h-67C10.4 66 7 62.6 7 58.5v-31Z" fill="url(#body)"/>
    <path d="M11 28c0-2.2 1.8-4 4-4h66c2.2 0 4 1.8 4 4v4H11v-4Z" fill="#C9F0FF" opacity="0.45"/>
    <path d="M15 32h66v17c-20.5 4.8-41.7-5.6-66 4.2V32Z" fill="url(#shine)"/>
    <path d="M14.5 20h67c4.1 0 7.5 3.4 7.5 7.5v31c0 4.1-3.4 7.5-7.5 7.5h-67C10.4 66 7 62.6 7 58.5v-31C7 23.4 10.4 20 14.5 20Z" fill="none" stroke="#DDF6FF" stroke-opacity="0.48"/>
  </g>
</svg>
